<svg width="69" height="69" viewBox="0 0 69 69" fill="none" xmlns="http://www.w3.org/2000/svg">
<path d="M64.1385 37.8842C63.2648 37.8675 62.4073 38.1201 61.6825 38.6076C60.9578 39.095 60.4011 39.7936 60.0883 40.6083H50.8474L47.2662 34.7089L50.7579 29.0373H60.0883C60.4158 29.8382 60.9747 30.5237 61.6937 31.0065C62.4126 31.4894 63.2592 31.7477 64.1257 31.7486C64.7755 31.7389 65.4152 31.5869 65.9997 31.3034C66.5842 31.0199 67.0992 30.6117 67.5085 30.1078C67.9177 29.6038 68.2111 29.0163 68.3681 28.3868C68.5251 27.7572 68.5417 27.101 68.4168 26.4643C68.0288 24.7617 66.7115 23.3656 64.9933 23.0464C63.9832 22.8317 62.9294 22.9905 62.0277 23.4931C61.1259 23.9956 60.4375 24.8079 60.0904 25.779H49.8242C49.5471 25.7877 49.2761 25.8625 49.0339 25.9973C48.7917 26.1321 48.5853 26.3229 48.4322 26.5536L44.5078 32.8638C44.6897 34.125 44.6897 35.4057 44.5078 36.6669L48.4322 43.0898C48.5883 43.3176 48.7954 43.5062 49.0369 43.6407C49.2785 43.7751 49.548 43.8517 49.8242 43.8644H60.0883C60.4039 44.6736 60.9599 45.367 61.6816 45.8516C62.4033 46.3362 63.2561 46.5889 64.1257 46.5758C65.2813 46.5758 66.3896 46.1174 67.2067 45.3016C68.0238 44.4859 68.4829 43.3794 68.4829 42.2257C68.4829 41.072 68.0238 39.9656 67.2067 39.1498C66.3896 38.334 65.2813 37.8757 64.1257 37.8757L64.1385 37.8842Z" fill="#BDD5F3"/>
<path d="M11.9539 34.7637C11.9573 30.4395 13.6794 26.2933 16.7421 23.2356C19.8048 20.1779 23.9577 18.4587 28.289 18.4553C30.27 18.4449 32.2353 18.8059 34.0829 19.5194V10.5682C34.0968 10.1492 34.074 9.72972 34.0147 9.31467C33.9153 8.66761 33.5869 8.07757 33.089 7.65157C32.5911 7.22558 31.9568 6.99187 31.3011 6.99282H25.3899C24.7281 6.9785 24.0842 7.2069 23.5797 7.63479C23.0753 8.06268 22.7455 8.66035 22.6528 9.31467L21.9686 14.3713C20.3954 14.9863 20.0074 15.146 18.4556 15.8291L14.3478 12.7304C13.2542 11.9558 11.7023 12.0239 10.7665 12.9581L6.56918 17.1486C5.56515 18.1744 5.47352 19.6322 6.34112 20.724L9.4427 24.8484C8.82664 26.3956 8.66682 26.7829 7.96123 28.3323L2.8281 29.0388C2.1845 29.1493 1.59967 29.4806 1.17468 29.9756C0.749689 30.4707 0.511222 31.0983 0.500304 31.7501V37.6495C0.490424 38.3069 0.721574 38.9452 1.15032 39.4441C1.57908 39.9431 2.17582 40.2684 2.8281 40.3587L7.89087 41.0653C8.50693 42.6146 8.6668 43.0019 9.38305 44.5491L6.25796 48.8332C5.86385 49.3545 5.67017 49.9996 5.71202 50.6514C5.75388 51.3032 6.02845 51.9184 6.48601 52.3851L10.6834 56.599C11.1563 57.0548 11.776 57.328 12.4321 57.3697C13.0881 57.4114 13.7376 57.2189 14.2646 56.8267L18.3958 53.7068C19.9477 54.3452 20.3357 54.5027 21.8854 55.1965L22.5931 60.2531C22.7046 60.8951 23.0368 61.4781 23.5325 61.9019C24.0282 62.3257 24.6564 62.5637 25.3089 62.5749H31.2179C31.878 62.5924 32.5211 62.3645 33.0225 61.9356C33.5238 61.5066 33.8478 60.907 33.9316 60.2531C34.0076 59.8398 34.0384 59.4195 34.0233 58.9996V50.0484C32.1951 50.745 30.2543 51.0999 28.2976 51.0955C23.9611 51.0932 19.803 49.3713 16.738 46.3086C13.673 43.2459 11.9522 39.0931 11.9539 34.7637Z" fill="#2977D7"/>
<path d="M52.4161 48.3006C51.4084 48.0858 50.357 48.233 49.4472 48.7161C48.5375 49.1992 47.8277 49.9874 47.4429 50.9417H43.2456L40.1887 45.9766C39.4105 46.8098 38.5459 47.5581 37.6094 48.2091L40.8964 53.4934C41.0514 53.7273 41.261 53.9201 41.5072 54.055C41.7534 54.19 42.0289 54.2631 42.3097 54.268H47.4429C48.1271 55.8174 49.7024 57.0006 51.4803 57.0006C52.1407 57.0001 52.7926 56.8506 53.387 56.5633C53.9815 56.2759 54.5032 55.8582 54.9131 55.3412C55.3231 54.8243 55.6108 54.2215 55.7546 53.5779C55.8984 52.9344 55.8946 52.2667 55.7437 51.6248C55.3493 50.0074 54.0255 48.6177 52.4161 48.3006Z" fill="#BDD5F3"/>
<path d="M43.297 18.5746H47.4943C47.8827 19.5263 48.5931 20.3119 49.5019 20.7945C50.4106 21.2771 51.4601 21.4261 52.4676 21.2157C54.1111 20.8284 55.5031 19.5132 55.8228 17.8681C55.9694 17.2257 55.969 16.5587 55.8215 15.9166C55.674 15.2745 55.3833 14.6738 54.9711 14.1594C54.5589 13.645 54.0357 13.23 53.4406 12.9454C52.8455 12.6608 52.1938 12.5139 51.5339 12.5156C50.6677 12.5236 49.8228 12.7843 49.1031 13.2657C48.3834 13.747 47.8205 14.4281 47.4837 15.2248H42.3506C42.0738 15.2352 41.8034 15.3109 41.5615 15.4455C41.3196 15.5801 41.113 15.77 40.9585 15.9995L37.6289 21.3987C38.5544 22.0366 39.404 22.7777 40.1613 23.6078L43.297 18.5746Z" fill="#BDD5F3"/>
<path d="M26.2302 33.3106C26.0767 32.936 25.9473 32.6061 25.8421 32.321C25.727 32.0379 25.629 31.8123 25.565 31.6484C25.5096 31.8123 25.4264 32.0379 25.3135 32.3295C25.2005 32.621 25.079 32.9445 24.9319 33.3169C24.7848 33.6894 24.6313 34.1108 24.4608 34.5577C24.2903 35.0046 24.1048 35.4877 23.9258 35.9836H27.2043C27.0338 35.4813 26.8633 35.011 26.6927 34.5577C26.5222 34.1044 26.3772 33.6894 26.2302 33.3106Z" fill="#BDD5F3"/>
<path d="M28.2956 21.8828C25.7393 21.8828 23.2403 22.6396 21.1149 24.0576C18.9894 25.4755 17.3328 27.4908 16.3547 29.8487C15.3765 32.2066 15.1207 34.8011 15.6196 37.3042C16.1185 39.8072 17.3496 42.1063 19.1573 43.9108C20.965 45.7153 23.2682 46.944 25.7754 47.4417C28.2827 47.9393 30.8814 47.6835 33.243 46.7065C35.6046 45.7296 37.6229 44.0754 39.0428 41.9532C40.4627 39.831 41.2204 37.3361 41.22 34.784C41.22 33.0896 40.8857 31.4118 40.2362 29.8464C39.5867 28.281 38.6346 26.8587 37.4344 25.6607C36.2342 24.4627 34.8094 23.5125 33.2414 22.8642C31.6733 22.216 29.9928 21.8825 28.2956 21.8828ZM28.6686 40.5152C28.5386 40.1194 28.4001 39.7065 28.2551 39.2915C28.1101 38.8765 27.963 38.4402 27.816 38.0358H23.3287C23.1837 38.4615 23.0452 38.8722 22.9023 39.2915C22.7595 39.7107 22.6167 40.1194 22.4888 40.5152H19.8114C20.2377 39.2851 20.6535 38.1422 21.035 37.0888C21.4166 36.0353 21.8067 35.0564 22.1798 34.1327C22.5528 33.2091 22.9087 32.3259 23.2754 31.4916C23.642 30.6574 24.0044 29.8487 24.3945 29.0548H26.8439C27.2191 29.8487 27.5921 30.6659 27.9566 31.4916C28.3211 32.3174 28.6942 33.2091 29.0673 34.1327C29.4403 35.0564 29.8133 36.0481 30.2034 37.0888C30.5935 38.1295 30.9985 39.2851 31.4377 40.5152H28.6686ZM35.4901 40.5152H32.9021V29.0548H35.4901V40.5152Z" fill="#BDD5F3"/>
</svg>
