<svg width="87" height="38" viewBox="0 0 87 38" fill="none" xmlns="http://www.w3.org/2000/svg">
<path d="M10.5484 -47.7206C10.5484 -47.014 9.97791 -46.4412 9.27419 -46.4412C8.57048 -46.4412 8 -47.014 8 -47.7206C8 -48.4272 8.57048 -49 9.27419 -49C9.97791 -49 10.5484 -48.4272 10.5484 -47.7206Z" fill="#CED6E2"/>
<path d="M18.1935 -47.7206C18.1935 -47.014 17.6231 -46.4412 16.9194 -46.4412C16.2156 -46.4412 15.6452 -47.014 15.6452 -47.7206C15.6452 -48.4272 16.2156 -49 16.9194 -49C17.6231 -49 18.1935 -48.4272 18.1935 -47.7206Z" fill="#CED6E2"/>
<path d="M25.8387 -47.7206C25.8387 -47.014 25.2682 -46.4412 24.5645 -46.4412C23.8608 -46.4412 23.2903 -47.014 23.2903 -47.7206C23.2903 -48.4272 23.8608 -49 24.5645 -49C25.2682 -49 25.8387 -48.4272 25.8387 -47.7206Z" fill="#CED6E2"/>
<path d="M33.4839 -47.7206C33.4839 -47.014 32.9134 -46.4412 32.2097 -46.4412C31.506 -46.4412 30.9355 -47.014 30.9355 -47.7206C30.9355 -48.4272 31.506 -49 32.2097 -49C32.9134 -49 33.4839 -48.4272 33.4839 -47.7206Z" fill="#CED6E2"/>
<path d="M41.129 -47.7206C41.129 -47.014 40.5586 -46.4412 39.8548 -46.4412C39.1511 -46.4412 38.5806 -47.014 38.5806 -47.7206C38.5806 -48.4272 39.1511 -49 39.8548 -49C40.5586 -49 41.129 -48.4272 41.129 -47.7206Z" fill="#CED6E2"/>
<path d="M48.7742 -47.7206C48.7742 -47.014 48.2037 -46.4412 47.5 -46.4412C46.7963 -46.4412 46.2258 -47.014 46.2258 -47.7206C46.2258 -48.4272 46.7963 -49 47.5 -49C48.2037 -49 48.7742 -48.4272 48.7742 -47.7206Z" fill="#CED6E2"/>
<path d="M56.4194 -47.7206C56.4194 -47.014 55.8489 -46.4412 55.1452 -46.4412C54.4414 -46.4412 53.871 -47.014 53.871 -47.7206C53.871 -48.4272 54.4414 -49 55.1452 -49C55.8489 -49 56.4194 -48.4272 56.4194 -47.7206Z" fill="#CED6E2"/>
<path d="M64.0645 -47.7206C64.0645 -47.014 63.494 -46.4412 62.7903 -46.4412C62.0866 -46.4412 61.5161 -47.014 61.5161 -47.7206C61.5161 -48.4272 62.0866 -49 62.7903 -49C63.494 -49 64.0645 -48.4272 64.0645 -47.7206Z" fill="#CED6E2"/>
<path d="M71.7097 -47.7206C71.7097 -47.014 71.1392 -46.4412 70.4355 -46.4412C69.7318 -46.4412 69.1613 -47.014 69.1613 -47.7206C69.1613 -48.4272 69.7318 -49 70.4355 -49C71.1392 -49 71.7097 -48.4272 71.7097 -47.7206Z" fill="#CED6E2"/>
<path d="M79.3548 -47.7206C79.3548 -47.014 78.7844 -46.4412 78.0806 -46.4412C77.3769 -46.4412 76.8064 -47.014 76.8064 -47.7206C76.8064 -48.4272 77.3769 -49 78.0806 -49C78.7844 -49 79.3548 -48.4272 79.3548 -47.7206Z" fill="#CED6E2"/>
<path d="M87 -47.7206C87 -47.014 86.4295 -46.4412 85.7258 -46.4412C85.0221 -46.4412 84.4516 -47.014 84.4516 -47.7206C84.4516 -48.4272 85.0221 -49 85.7258 -49C86.4295 -49 87 -48.4272 87 -47.7206Z" fill="#CED6E2"/>
<path d="M10.5484 -40.0441C10.5484 -39.3375 9.97791 -38.7647 9.27419 -38.7647C8.57048 -38.7647 8 -39.3375 8 -40.0441C8 -40.7507 8.57048 -41.3235 9.27419 -41.3235C9.97791 -41.3235 10.5484 -40.7507 10.5484 -40.0441Z" fill="#CED6E2"/>
<path d="M18.1935 -40.0441C18.1935 -39.3375 17.6231 -38.7647 16.9194 -38.7647C16.2156 -38.7647 15.6452 -39.3375 15.6452 -40.0441C15.6452 -40.7507 16.2156 -41.3235 16.9194 -41.3235C17.6231 -41.3235 18.1935 -40.7507 18.1935 -40.0441Z" fill="#CED6E2"/>
<path d="M25.8387 -40.0441C25.8387 -39.3375 25.2682 -38.7647 24.5645 -38.7647C23.8608 -38.7647 23.2903 -39.3375 23.2903 -40.0441C23.2903 -40.7507 23.8608 -41.3235 24.5645 -41.3235C25.2682 -41.3235 25.8387 -40.7507 25.8387 -40.0441Z" fill="#CED6E2"/>
<path d="M33.4839 -40.0441C33.4839 -39.3375 32.9134 -38.7647 32.2097 -38.7647C31.506 -38.7647 30.9355 -39.3375 30.9355 -40.0441C30.9355 -40.7507 31.506 -41.3235 32.2097 -41.3235C32.9134 -41.3235 33.4839 -40.7507 33.4839 -40.0441Z" fill="#CED6E2"/>
<path d="M41.129 -40.0441C41.129 -39.3375 40.5586 -38.7647 39.8548 -38.7647C39.1511 -38.7647 38.5806 -39.3375 38.5806 -40.0441C38.5806 -40.7507 39.1511 -41.3235 39.8548 -41.3235C40.5586 -41.3235 41.129 -40.7507 41.129 -40.0441Z" fill="#CED6E2"/>
<path d="M48.7742 -40.0441C48.7742 -39.3375 48.2037 -38.7647 47.5 -38.7647C46.7963 -38.7647 46.2258 -39.3375 46.2258 -40.0441C46.2258 -40.7507 46.7963 -41.3235 47.5 -41.3235C48.2037 -41.3235 48.7742 -40.7507 48.7742 -40.0441Z" fill="#CED6E2"/>
<path d="M56.4194 -40.0441C56.4194 -39.3375 55.8489 -38.7647 55.1452 -38.7647C54.4414 -38.7647 53.871 -39.3375 53.871 -40.0441C53.871 -40.7507 54.4414 -41.3235 55.1452 -41.3235C55.8489 -41.3235 56.4194 -40.7507 56.4194 -40.0441Z" fill="#CED6E2"/>
<path d="M64.0645 -40.0441C64.0645 -39.3375 63.494 -38.7647 62.7903 -38.7647C62.0866 -38.7647 61.5161 -39.3375 61.5161 -40.0441C61.5161 -40.7507 62.0866 -41.3235 62.7903 -41.3235C63.494 -41.3235 64.0645 -40.7507 64.0645 -40.0441Z" fill="#CED6E2"/>
<path d="M71.7097 -40.0441C71.7097 -39.3375 71.1392 -38.7647 70.4355 -38.7647C69.7318 -38.7647 69.1613 -39.3375 69.1613 -40.0441C69.1613 -40.7507 69.7318 -41.3235 70.4355 -41.3235C71.1392 -41.3235 71.7097 -40.7507 71.7097 -40.0441Z" fill="#CED6E2"/>
<path d="M79.3548 -40.0441C79.3548 -39.3375 78.7844 -38.7647 78.0806 -38.7647C77.3769 -38.7647 76.8064 -39.3375 76.8064 -40.0441C76.8064 -40.7507 77.3769 -41.3235 78.0806 -41.3235C78.7844 -41.3235 79.3548 -40.7507 79.3548 -40.0441Z" fill="#CED6E2"/>
<path d="M87 -40.0441C87 -39.3375 86.4295 -38.7647 85.7258 -38.7647C85.0221 -38.7647 84.4516 -39.3375 84.4516 -40.0441C84.4516 -40.7507 85.0221 -41.3235 85.7258 -41.3235C86.4295 -41.3235 87 -40.7507 87 -40.0441Z" fill="#CED6E2"/>
<path d="M10.5484 -32.3676C10.5484 -31.661 9.97791 -31.0882 9.27419 -31.0882C8.57048 -31.0882 8 -31.661 8 -32.3676C8 -33.0742 8.57048 -33.6471 9.27419 -33.6471C9.97791 -33.6471 10.5484 -33.0742 10.5484 -32.3676Z" fill="#CED6E2"/>
<path d="M18.1935 -32.3676C18.1935 -31.661 17.6231 -31.0882 16.9194 -31.0882C16.2156 -31.0882 15.6452 -31.661 15.6452 -32.3676C15.6452 -33.0742 16.2156 -33.6471 16.9194 -33.6471C17.6231 -33.6471 18.1935 -33.0742 18.1935 -32.3676Z" fill="#CED6E2"/>
<path d="M25.8387 -32.3676C25.8387 -31.661 25.2682 -31.0882 24.5645 -31.0882C23.8608 -31.0882 23.2903 -31.661 23.2903 -32.3676C23.2903 -33.0742 23.8608 -33.6471 24.5645 -33.6471C25.2682 -33.6471 25.8387 -33.0742 25.8387 -32.3676Z" fill="#CED6E2"/>
<path d="M33.4839 -32.3676C33.4839 -31.661 32.9134 -31.0882 32.2097 -31.0882C31.506 -31.0882 30.9355 -31.661 30.9355 -32.3676C30.9355 -33.0742 31.506 -33.6471 32.2097 -33.6471C32.9134 -33.6471 33.4839 -33.0742 33.4839 -32.3676Z" fill="#CED6E2"/>
<path d="M41.129 -32.3676C41.129 -31.661 40.5586 -31.0882 39.8548 -31.0882C39.1511 -31.0882 38.5806 -31.661 38.5806 -32.3676C38.5806 -33.0742 39.1511 -33.6471 39.8548 -33.6471C40.5586 -33.6471 41.129 -33.0742 41.129 -32.3676Z" fill="#CED6E2"/>
<path d="M48.7742 -32.3676C48.7742 -31.661 48.2037 -31.0882 47.5 -31.0882C46.7963 -31.0882 46.2258 -31.661 46.2258 -32.3676C46.2258 -33.0742 46.7963 -33.6471 47.5 -33.6471C48.2037 -33.6471 48.7742 -33.0742 48.7742 -32.3676Z" fill="#CED6E2"/>
<path d="M56.4194 -32.3676C56.4194 -31.661 55.8489 -31.0882 55.1452 -31.0882C54.4414 -31.0882 53.871 -31.661 53.871 -32.3676C53.871 -33.0742 54.4414 -33.6471 55.1452 -33.6471C55.8489 -33.6471 56.4194 -33.0742 56.4194 -32.3676Z" fill="#CED6E2"/>
<path d="M64.0645 -32.3676C64.0645 -31.661 63.494 -31.0882 62.7903 -31.0882C62.0866 -31.0882 61.5161 -31.661 61.5161 -32.3676C61.5161 -33.0742 62.0866 -33.6471 62.7903 -33.6471C63.494 -33.6471 64.0645 -33.0742 64.0645 -32.3676Z" fill="#CED6E2"/>
<path d="M71.7097 -32.3676C71.7097 -31.661 71.1392 -31.0882 70.4355 -31.0882C69.7318 -31.0882 69.1613 -31.661 69.1613 -32.3676C69.1613 -33.0742 69.7318 -33.6471 70.4355 -33.6471C71.1392 -33.6471 71.7097 -33.0742 71.7097 -32.3676Z" fill="#CED6E2"/>
<path d="M79.3548 -32.3676C79.3548 -31.661 78.7844 -31.0882 78.0806 -31.0882C77.3769 -31.0882 76.8064 -31.661 76.8064 -32.3676C76.8064 -33.0742 77.3769 -33.6471 78.0806 -33.6471C78.7844 -33.6471 79.3548 -33.0742 79.3548 -32.3676Z" fill="#CED6E2"/>
<path d="M87 -32.3676C87 -31.661 86.4295 -31.0882 85.7258 -31.0882C85.0221 -31.0882 84.4516 -31.661 84.4516 -32.3676C84.4516 -33.0742 85.0221 -33.6471 85.7258 -33.6471C86.4295 -33.6471 87 -33.0742 87 -32.3676Z" fill="#CED6E2"/>
<path d="M10.5484 -24.6912C10.5484 -23.9846 9.97791 -23.4118 9.27419 -23.4118C8.57048 -23.4118 8 -23.9846 8 -24.6912C8 -25.3978 8.57048 -25.9706 9.27419 -25.9706C9.97791 -25.9706 10.5484 -25.3978 10.5484 -24.6912Z" fill="#CED6E2"/>
<path d="M18.1935 -24.6912C18.1935 -23.9846 17.6231 -23.4118 16.9194 -23.4118C16.2156 -23.4118 15.6452 -23.9846 15.6452 -24.6912C15.6452 -25.3978 16.2156 -25.9706 16.9194 -25.9706C17.6231 -25.9706 18.1935 -25.3978 18.1935 -24.6912Z" fill="#CED6E2"/>
<path d="M25.8387 -24.6912C25.8387 -23.9846 25.2682 -23.4118 24.5645 -23.4118C23.8608 -23.4118 23.2903 -23.9846 23.2903 -24.6912C23.2903 -25.3978 23.8608 -25.9706 24.5645 -25.9706C25.2682 -25.9706 25.8387 -25.3978 25.8387 -24.6912Z" fill="#CED6E2"/>
<path d="M33.4839 -24.6912C33.4839 -23.9846 32.9134 -23.4118 32.2097 -23.4118C31.506 -23.4118 30.9355 -23.9846 30.9355 -24.6912C30.9355 -25.3978 31.506 -25.9706 32.2097 -25.9706C32.9134 -25.9706 33.4839 -25.3978 33.4839 -24.6912Z" fill="#CED6E2"/>
<path d="M41.129 -24.6912C41.129 -23.9846 40.5586 -23.4118 39.8548 -23.4118C39.1511 -23.4118 38.5806 -23.9846 38.5806 -24.6912C38.5806 -25.3978 39.1511 -25.9706 39.8548 -25.9706C40.5586 -25.9706 41.129 -25.3978 41.129 -24.6912Z" fill="#CED6E2"/>
<path d="M48.7742 -24.6912C48.7742 -23.9846 48.2037 -23.4118 47.5 -23.4118C46.7963 -23.4118 46.2258 -23.9846 46.2258 -24.6912C46.2258 -25.3978 46.7963 -25.9706 47.5 -25.9706C48.2037 -25.9706 48.7742 -25.3978 48.7742 -24.6912Z" fill="#CED6E2"/>
<path d="M56.4194 -24.6912C56.4194 -23.9846 55.8489 -23.4118 55.1452 -23.4118C54.4414 -23.4118 53.871 -23.9846 53.871 -24.6912C53.871 -25.3978 54.4414 -25.9706 55.1452 -25.9706C55.8489 -25.9706 56.4194 -25.3978 56.4194 -24.6912Z" fill="#CED6E2"/>
<path d="M64.0645 -24.6912C64.0645 -23.9846 63.494 -23.4118 62.7903 -23.4118C62.0866 -23.4118 61.5161 -23.9846 61.5161 -24.6912C61.5161 -25.3978 62.0866 -25.9706 62.7903 -25.9706C63.494 -25.9706 64.0645 -25.3978 64.0645 -24.6912Z" fill="#CED6E2"/>
<path d="M71.7097 -24.6912C71.7097 -23.9846 71.1392 -23.4118 70.4355 -23.4118C69.7318 -23.4118 69.1613 -23.9846 69.1613 -24.6912C69.1613 -25.3978 69.7318 -25.9706 70.4355 -25.9706C71.1392 -25.9706 71.7097 -25.3978 71.7097 -24.6912Z" fill="#CED6E2"/>
<path d="M79.3548 -24.6912C79.3548 -23.9846 78.7844 -23.4118 78.0806 -23.4118C77.3769 -23.4118 76.8064 -23.9846 76.8064 -24.6912C76.8064 -25.3978 77.3769 -25.9706 78.0806 -25.9706C78.7844 -25.9706 79.3548 -25.3978 79.3548 -24.6912Z" fill="#CED6E2"/>
<path d="M87 -24.6912C87 -23.9846 86.4295 -23.4118 85.7258 -23.4118C85.0221 -23.4118 84.4516 -23.9846 84.4516 -24.6912C84.4516 -25.3978 85.0221 -25.9706 85.7258 -25.9706C86.4295 -25.9706 87 -25.3978 87 -24.6912Z" fill="#CED6E2"/>
<path d="M10.5484 -17.0147C10.5484 -16.3081 9.97791 -15.7353 9.27419 -15.7353C8.57048 -15.7353 8 -16.3081 8 -17.0147C8 -17.7213 8.57048 -18.2941 9.27419 -18.2941C9.97791 -18.2941 10.5484 -17.7213 10.5484 -17.0147Z" fill="#CED6E2"/>
<path d="M18.1935 -17.0147C18.1935 -16.3081 17.6231 -15.7353 16.9194 -15.7353C16.2156 -15.7353 15.6452 -16.3081 15.6452 -17.0147C15.6452 -17.7213 16.2156 -18.2941 16.9194 -18.2941C17.6231 -18.2941 18.1935 -17.7213 18.1935 -17.0147Z" fill="#CED6E2"/>
<path d="M25.8387 -17.0147C25.8387 -16.3081 25.2682 -15.7353 24.5645 -15.7353C23.8608 -15.7353 23.2903 -16.3081 23.2903 -17.0147C23.2903 -17.7213 23.8608 -18.2941 24.5645 -18.2941C25.2682 -18.2941 25.8387 -17.7213 25.8387 -17.0147Z" fill="#CED6E2"/>
<path d="M33.4839 -17.0147C33.4839 -16.3081 32.9134 -15.7353 32.2097 -15.7353C31.506 -15.7353 30.9355 -16.3081 30.9355 -17.0147C30.9355 -17.7213 31.506 -18.2941 32.2097 -18.2941C32.9134 -18.2941 33.4839 -17.7213 33.4839 -17.0147Z" fill="#CED6E2"/>
<path d="M41.129 -17.0147C41.129 -16.3081 40.5586 -15.7353 39.8548 -15.7353C39.1511 -15.7353 38.5806 -16.3081 38.5806 -17.0147C38.5806 -17.7213 39.1511 -18.2941 39.8548 -18.2941C40.5586 -18.2941 41.129 -17.7213 41.129 -17.0147Z" fill="#CED6E2"/>
<path d="M48.7742 -17.0147C48.7742 -16.3081 48.2037 -15.7353 47.5 -15.7353C46.7963 -15.7353 46.2258 -16.3081 46.2258 -17.0147C46.2258 -17.7213 46.7963 -18.2941 47.5 -18.2941C48.2037 -18.2941 48.7742 -17.7213 48.7742 -17.0147Z" fill="#CED6E2"/>
<path d="M56.4194 -17.0147C56.4194 -16.3081 55.8489 -15.7353 55.1452 -15.7353C54.4414 -15.7353 53.871 -16.3081 53.871 -17.0147C53.871 -17.7213 54.4414 -18.2941 55.1452 -18.2941C55.8489 -18.2941 56.4194 -17.7213 56.4194 -17.0147Z" fill="#CED6E2"/>
<path d="M64.0645 -17.0147C64.0645 -16.3081 63.494 -15.7353 62.7903 -15.7353C62.0866 -15.7353 61.5161 -16.3081 61.5161 -17.0147C61.5161 -17.7213 62.0866 -18.2941 62.7903 -18.2941C63.494 -18.2941 64.0645 -17.7213 64.0645 -17.0147Z" fill="#CED6E2"/>
<path d="M71.7097 -17.0147C71.7097 -16.3081 71.1392 -15.7353 70.4355 -15.7353C69.7318 -15.7353 69.1613 -16.3081 69.1613 -17.0147C69.1613 -17.7213 69.7318 -18.2941 70.4355 -18.2941C71.1392 -18.2941 71.7097 -17.7213 71.7097 -17.0147Z" fill="#CED6E2"/>
<path d="M79.3548 -17.0147C79.3548 -16.3081 78.7844 -15.7353 78.0806 -15.7353C77.3769 -15.7353 76.8064 -16.3081 76.8064 -17.0147C76.8064 -17.7213 77.3769 -18.2941 78.0806 -18.2941C78.7844 -18.2941 79.3548 -17.7213 79.3548 -17.0147Z" fill="#CED6E2"/>
<path d="M87 -17.0147C87 -16.3081 86.4295 -15.7353 85.7258 -15.7353C85.0221 -15.7353 84.4516 -16.3081 84.4516 -17.0147C84.4516 -17.7213 85.0221 -18.2941 85.7258 -18.2941C86.4295 -18.2941 87 -17.7213 87 -17.0147Z" fill="#CED6E2"/>
<path d="M10.5484 -9.33823C10.5484 -8.63163 9.97791 -8.05882 9.27419 -8.05882C8.57048 -8.05882 8 -8.63163 8 -9.33823C8 -10.0448 8.57048 -10.6176 9.27419 -10.6176C9.97791 -10.6176 10.5484 -10.0448 10.5484 -9.33823Z" fill="#CED6E2"/>
<path d="M18.1935 -9.33823C18.1935 -8.63163 17.6231 -8.05882 16.9194 -8.05882C16.2156 -8.05882 15.6452 -8.63163 15.6452 -9.33823C15.6452 -10.0448 16.2156 -10.6176 16.9194 -10.6176C17.6231 -10.6176 18.1935 -10.0448 18.1935 -9.33823Z" fill="#CED6E2"/>
<path d="M25.8387 -9.33823C25.8387 -8.63163 25.2682 -8.05882 24.5645 -8.05882C23.8608 -8.05882 23.2903 -8.63163 23.2903 -9.33823C23.2903 -10.0448 23.8608 -10.6176 24.5645 -10.6176C25.2682 -10.6176 25.8387 -10.0448 25.8387 -9.33823Z" fill="#CED6E2"/>
<path d="M33.4839 -9.33823C33.4839 -8.63163 32.9134 -8.05882 32.2097 -8.05882C31.506 -8.05882 30.9355 -8.63163 30.9355 -9.33823C30.9355 -10.0448 31.506 -10.6176 32.2097 -10.6176C32.9134 -10.6176 33.4839 -10.0448 33.4839 -9.33823Z" fill="#CED6E2"/>
<path d="M41.129 -9.33823C41.129 -8.63163 40.5586 -8.05882 39.8548 -8.05882C39.1511 -8.05882 38.5806 -8.63163 38.5806 -9.33823C38.5806 -10.0448 39.1511 -10.6176 39.8548 -10.6176C40.5586 -10.6176 41.129 -10.0448 41.129 -9.33823Z" fill="#CED6E2"/>
<path d="M48.7742 -9.33823C48.7742 -8.63163 48.2037 -8.05882 47.5 -8.05882C46.7963 -8.05882 46.2258 -8.63163 46.2258 -9.33823C46.2258 -10.0448 46.7963 -10.6176 47.5 -10.6176C48.2037 -10.6176 48.7742 -10.0448 48.7742 -9.33823Z" fill="#CED6E2"/>
<path d="M56.4194 -9.33823C56.4194 -8.63163 55.8489 -8.05882 55.1452 -8.05882C54.4414 -8.05882 53.871 -8.63163 53.871 -9.33823C53.871 -10.0448 54.4414 -10.6176 55.1452 -10.6176C55.8489 -10.6176 56.4194 -10.0448 56.4194 -9.33823Z" fill="#CED6E2"/>
<path d="M64.0645 -9.33823C64.0645 -8.63163 63.494 -8.05882 62.7903 -8.05882C62.0866 -8.05882 61.5161 -8.63163 61.5161 -9.33823C61.5161 -10.0448 62.0866 -10.6176 62.7903 -10.6176C63.494 -10.6176 64.0645 -10.0448 64.0645 -9.33823Z" fill="#CED6E2"/>
<path d="M71.7097 -9.33823C71.7097 -8.63163 71.1392 -8.05882 70.4355 -8.05882C69.7318 -8.05882 69.1613 -8.63163 69.1613 -9.33823C69.1613 -10.0448 69.7318 -10.6176 70.4355 -10.6176C71.1392 -10.6176 71.7097 -10.0448 71.7097 -9.33823Z" fill="#CED6E2"/>
<path d="M79.3548 -9.33823C79.3548 -8.63163 78.7844 -8.05882 78.0806 -8.05882C77.3769 -8.05882 76.8064 -8.63163 76.8064 -9.33823C76.8064 -10.0448 77.3769 -10.6176 78.0806 -10.6176C78.7844 -10.6176 79.3548 -10.0448 79.3548 -9.33823Z" fill="#CED6E2"/>
<path d="M87 -9.33823C87 -8.63163 86.4295 -8.05882 85.7258 -8.05882C85.0221 -8.05882 84.4516 -8.63163 84.4516 -9.33823C84.4516 -10.0448 85.0221 -10.6176 85.7258 -10.6176C86.4295 -10.6176 87 -10.0448 87 -9.33823Z" fill="#CED6E2"/>
<path d="M10.5484 -1.66177C10.5484 -0.955166 9.97791 -0.382355 9.27419 -0.382355C8.57048 -0.382355 8 -0.955166 8 -1.66177C8 -2.36837 8.57048 -2.94118 9.27419 -2.94118C9.97791 -2.94118 10.5484 -2.36837 10.5484 -1.66177Z" fill="#CED6E2"/>
<path d="M18.1935 -1.66177C18.1935 -0.955166 17.6231 -0.382355 16.9194 -0.382355C16.2156 -0.382355 15.6452 -0.955166 15.6452 -1.66177C15.6452 -2.36837 16.2156 -2.94118 16.9194 -2.94118C17.6231 -2.94118 18.1935 -2.36837 18.1935 -1.66177Z" fill="#CED6E2"/>
<path d="M25.8387 -1.66177C25.8387 -0.955166 25.2682 -0.382355 24.5645 -0.382355C23.8608 -0.382355 23.2903 -0.955166 23.2903 -1.66177C23.2903 -2.36837 23.8608 -2.94118 24.5645 -2.94118C25.2682 -2.94118 25.8387 -2.36837 25.8387 -1.66177Z" fill="#CED6E2"/>
<path d="M33.4839 -1.66177C33.4839 -0.955166 32.9134 -0.382355 32.2097 -0.382355C31.506 -0.382355 30.9355 -0.955166 30.9355 -1.66177C30.9355 -2.36837 31.506 -2.94118 32.2097 -2.94118C32.9134 -2.94118 33.4839 -2.36837 33.4839 -1.66177Z" fill="#CED6E2"/>
<path d="M41.129 -1.66177C41.129 -0.955166 40.5586 -0.382355 39.8548 -0.382355C39.1511 -0.382355 38.5806 -0.955166 38.5806 -1.66177C38.5806 -2.36837 39.1511 -2.94118 39.8548 -2.94118C40.5586 -2.94118 41.129 -2.36837 41.129 -1.66177Z" fill="#CED6E2"/>
<path d="M48.7742 -1.66177C48.7742 -0.955166 48.2037 -0.382355 47.5 -0.382355C46.7963 -0.382355 46.2258 -0.955166 46.2258 -1.66177C46.2258 -2.36837 46.7963 -2.94118 47.5 -2.94118C48.2037 -2.94118 48.7742 -2.36837 48.7742 -1.66177Z" fill="#CED6E2"/>
<path d="M56.4194 -1.66177C56.4194 -0.955166 55.8489 -0.382355 55.1452 -0.382355C54.4414 -0.382355 53.871 -0.955166 53.871 -1.66177C53.871 -2.36837 54.4414 -2.94118 55.1452 -2.94118C55.8489 -2.94118 56.4194 -2.36837 56.4194 -1.66177Z" fill="#CED6E2"/>
<path d="M64.0645 -1.66177C64.0645 -0.955166 63.494 -0.382355 62.7903 -0.382355C62.0866 -0.382355 61.5161 -0.955166 61.5161 -1.66177C61.5161 -2.36837 62.0866 -2.94118 62.7903 -2.94118C63.494 -2.94118 64.0645 -2.36837 64.0645 -1.66177Z" fill="#CED6E2"/>
<path d="M71.7097 -1.66177C71.7097 -0.955166 71.1392 -0.382355 70.4355 -0.382355C69.7318 -0.382355 69.1613 -0.955166 69.1613 -1.66177C69.1613 -2.36837 69.7318 -2.94118 70.4355 -2.94118C71.1392 -2.94118 71.7097 -2.36837 71.7097 -1.66177Z" fill="#CED6E2"/>
<path d="M79.3548 -1.66177C79.3548 -0.955166 78.7844 -0.382355 78.0806 -0.382355C77.3769 -0.382355 76.8064 -0.955166 76.8064 -1.66177C76.8064 -2.36837 77.3769 -2.94118 78.0806 -2.94118C78.7844 -2.94118 79.3548 -2.36837 79.3548 -1.66177Z" fill="#CED6E2"/>
<path d="M87 -1.66177C87 -0.955166 86.4295 -0.382355 85.7258 -0.382355C85.0221 -0.382355 84.4516 -0.955166 84.4516 -1.66177C84.4516 -2.36837 85.0221 -2.94118 85.7258 -2.94118C86.4295 -2.94118 87 -2.36837 87 -1.66177Z" fill="#CED6E2"/>
<path d="M10.5484 6.01471C10.5484 6.72131 9.97791 7.29412 9.27419 7.29412C8.57048 7.29412 8 6.72131 8 6.01471C8 5.30811 8.57048 4.73529 9.27419 4.73529C9.97791 4.73529 10.5484 5.30811 10.5484 6.01471Z" fill="#CED6E2"/>
<path d="M18.1935 6.01471C18.1935 6.72131 17.6231 7.29412 16.9194 7.29412C16.2156 7.29412 15.6452 6.72131 15.6452 6.01471C15.6452 5.30811 16.2156 4.73529 16.9194 4.73529C17.6231 4.73529 18.1935 5.30811 18.1935 6.01471Z" fill="#CED6E2"/>
<path d="M25.8387 6.01471C25.8387 6.72131 25.2682 7.29412 24.5645 7.29412C23.8608 7.29412 23.2903 6.72131 23.2903 6.01471C23.2903 5.30811 23.8608 4.73529 24.5645 4.73529C25.2682 4.73529 25.8387 5.30811 25.8387 6.01471Z" fill="#CED6E2"/>
<path d="M33.4839 6.01471C33.4839 6.72131 32.9134 7.29412 32.2097 7.29412C31.506 7.29412 30.9355 6.72131 30.9355 6.01471C30.9355 5.30811 31.506 4.73529 32.2097 4.73529C32.9134 4.73529 33.4839 5.30811 33.4839 6.01471Z" fill="#CED6E2"/>
<path d="M41.129 6.01471C41.129 6.72131 40.5586 7.29412 39.8548 7.29412C39.1511 7.29412 38.5806 6.72131 38.5806 6.01471C38.5806 5.30811 39.1511 4.73529 39.8548 4.73529C40.5586 4.73529 41.129 5.30811 41.129 6.01471Z" fill="#CED6E2"/>
<path d="M48.7742 6.01471C48.7742 6.72131 48.2037 7.29412 47.5 7.29412C46.7963 7.29412 46.2258 6.72131 46.2258 6.01471C46.2258 5.30811 46.7963 4.73529 47.5 4.73529C48.2037 4.73529 48.7742 5.30811 48.7742 6.01471Z" fill="#CED6E2"/>
<path d="M56.4194 6.01471C56.4194 6.72131 55.8489 7.29412 55.1452 7.29412C54.4414 7.29412 53.871 6.72131 53.871 6.01471C53.871 5.30811 54.4414 4.73529 55.1452 4.73529C55.8489 4.73529 56.4194 5.30811 56.4194 6.01471Z" fill="#CED6E2"/>
<path d="M64.0645 6.01471C64.0645 6.72131 63.494 7.29412 62.7903 7.29412C62.0866 7.29412 61.5161 6.72131 61.5161 6.01471C61.5161 5.30811 62.0866 4.73529 62.7903 4.73529C63.494 4.73529 64.0645 5.30811 64.0645 6.01471Z" fill="#CED6E2"/>
<path d="M71.7097 6.01471C71.7097 6.72131 71.1392 7.29412 70.4355 7.29412C69.7318 7.29412 69.1613 6.72131 69.1613 6.01471C69.1613 5.30811 69.7318 4.73529 70.4355 4.73529C71.1392 4.73529 71.7097 5.30811 71.7097 6.01471Z" fill="#CED6E2"/>
<path d="M79.3548 6.01471C79.3548 6.72131 78.7844 7.29412 78.0806 7.29412C77.3769 7.29412 76.8064 6.72131 76.8064 6.01471C76.8064 5.30811 77.3769 4.73529 78.0806 4.73529C78.7844 4.73529 79.3548 5.30811 79.3548 6.01471Z" fill="#CED6E2"/>
<path d="M87 6.01471C87 6.72131 86.4295 7.29412 85.7258 7.29412C85.0221 7.29412 84.4516 6.72131 84.4516 6.01471C84.4516 5.30811 85.0221 4.73529 85.7258 4.73529C86.4295 4.73529 87 5.30811 87 6.01471Z" fill="#CED6E2"/>
<path d="M10.5484 13.6912C10.5484 14.3978 9.97791 14.9706 9.27419 14.9706C8.57048 14.9706 8 14.3978 8 13.6912C8 12.9846 8.57048 12.4118 9.27419 12.4118C9.97791 12.4118 10.5484 12.9846 10.5484 13.6912Z" fill="#CED6E2"/>
<path d="M18.1935 13.6912C18.1935 14.3978 17.6231 14.9706 16.9194 14.9706C16.2156 14.9706 15.6452 14.3978 15.6452 13.6912C15.6452 12.9846 16.2156 12.4118 16.9194 12.4118C17.6231 12.4118 18.1935 12.9846 18.1935 13.6912Z" fill="#CED6E2"/>
<path d="M25.8387 13.6912C25.8387 14.3978 25.2682 14.9706 24.5645 14.9706C23.8608 14.9706 23.2903 14.3978 23.2903 13.6912C23.2903 12.9846 23.8608 12.4118 24.5645 12.4118C25.2682 12.4118 25.8387 12.9846 25.8387 13.6912Z" fill="#CED6E2"/>
<path d="M33.4839 13.6912C33.4839 14.3978 32.9134 14.9706 32.2097 14.9706C31.506 14.9706 30.9355 14.3978 30.9355 13.6912C30.9355 12.9846 31.506 12.4118 32.2097 12.4118C32.9134 12.4118 33.4839 12.9846 33.4839 13.6912Z" fill="#CED6E2"/>
<path d="M41.129 13.6912C41.129 14.3978 40.5586 14.9706 39.8548 14.9706C39.1511 14.9706 38.5806 14.3978 38.5806 13.6912C38.5806 12.9846 39.1511 12.4118 39.8548 12.4118C40.5586 12.4118 41.129 12.9846 41.129 13.6912Z" fill="#CED6E2"/>
<path d="M48.7742 13.6912C48.7742 14.3978 48.2037 14.9706 47.5 14.9706C46.7963 14.9706 46.2258 14.3978 46.2258 13.6912C46.2258 12.9846 46.7963 12.4118 47.5 12.4118C48.2037 12.4118 48.7742 12.9846 48.7742 13.6912Z" fill="#CED6E2"/>
<path d="M56.4194 13.6912C56.4194 14.3978 55.8489 14.9706 55.1452 14.9706C54.4414 14.9706 53.871 14.3978 53.871 13.6912C53.871 12.9846 54.4414 12.4118 55.1452 12.4118C55.8489 12.4118 56.4194 12.9846 56.4194 13.6912Z" fill="#CED6E2"/>
<path d="M64.0645 13.6912C64.0645 14.3978 63.494 14.9706 62.7903 14.9706C62.0866 14.9706 61.5161 14.3978 61.5161 13.6912C61.5161 12.9846 62.0866 12.4118 62.7903 12.4118C63.494 12.4118 64.0645 12.9846 64.0645 13.6912Z" fill="#CED6E2"/>
<path d="M71.7097 13.6912C71.7097 14.3978 71.1392 14.9706 70.4355 14.9706C69.7318 14.9706 69.1613 14.3978 69.1613 13.6912C69.1613 12.9846 69.7318 12.4118 70.4355 12.4118C71.1392 12.4118 71.7097 12.9846 71.7097 13.6912Z" fill="#CED6E2"/>
<path d="M79.3548 13.6912C79.3548 14.3978 78.7844 14.9706 78.0806 14.9706C77.3769 14.9706 76.8064 14.3978 76.8064 13.6912C76.8064 12.9846 77.3769 12.4118 78.0806 12.4118C78.7844 12.4118 79.3548 12.9846 79.3548 13.6912Z" fill="#CED6E2"/>
<path d="M87 13.6912C87 14.3978 86.4295 14.9706 85.7258 14.9706C85.0221 14.9706 84.4516 14.3978 84.4516 13.6912C84.4516 12.9846 85.0221 12.4118 85.7258 12.4118C86.4295 12.4118 87 12.9846 87 13.6912Z" fill="#CED6E2"/>
<path d="M10.5484 21.3676C10.5484 22.0742 9.97791 22.6471 9.27419 22.6471C8.57048 22.6471 8 22.0742 8 21.3676C8 20.661 8.57048 20.0882 9.27419 20.0882C9.97791 20.0882 10.5484 20.661 10.5484 21.3676Z" fill="#CED6E2"/>
<path d="M18.1935 21.3676C18.1935 22.0742 17.6231 22.6471 16.9194 22.6471C16.2156 22.6471 15.6452 22.0742 15.6452 21.3676C15.6452 20.661 16.2156 20.0882 16.9194 20.0882C17.6231 20.0882 18.1935 20.661 18.1935 21.3676Z" fill="#CED6E2"/>
<path d="M25.8387 21.3676C25.8387 22.0742 25.2682 22.6471 24.5645 22.6471C23.8608 22.6471 23.2903 22.0742 23.2903 21.3676C23.2903 20.661 23.8608 20.0882 24.5645 20.0882C25.2682 20.0882 25.8387 20.661 25.8387 21.3676Z" fill="#CED6E2"/>
<path d="M33.4839 21.3676C33.4839 22.0742 32.9134 22.6471 32.2097 22.6471C31.506 22.6471 30.9355 22.0742 30.9355 21.3676C30.9355 20.661 31.506 20.0882 32.2097 20.0882C32.9134 20.0882 33.4839 20.661 33.4839 21.3676Z" fill="#CED6E2"/>
<path d="M41.129 21.3676C41.129 22.0742 40.5586 22.6471 39.8548 22.6471C39.1511 22.6471 38.5806 22.0742 38.5806 21.3676C38.5806 20.661 39.1511 20.0882 39.8548 20.0882C40.5586 20.0882 41.129 20.661 41.129 21.3676Z" fill="#CED6E2"/>
<path d="M48.7742 21.3676C48.7742 22.0742 48.2037 22.6471 47.5 22.6471C46.7963 22.6471 46.2258 22.0742 46.2258 21.3676C46.2258 20.661 46.7963 20.0882 47.5 20.0882C48.2037 20.0882 48.7742 20.661 48.7742 21.3676Z" fill="#CED6E2"/>
<path d="M56.4194 21.3676C56.4194 22.0742 55.8489 22.6471 55.1452 22.6471C54.4414 22.6471 53.871 22.0742 53.871 21.3676C53.871 20.661 54.4414 20.0882 55.1452 20.0882C55.8489 20.0882 56.4194 20.661 56.4194 21.3676Z" fill="#CED6E2"/>
<path d="M64.0645 21.3676C64.0645 22.0742 63.494 22.6471 62.7903 22.6471C62.0866 22.6471 61.5161 22.0742 61.5161 21.3676C61.5161 20.661 62.0866 20.0882 62.7903 20.0882C63.494 20.0882 64.0645 20.661 64.0645 21.3676Z" fill="#CED6E2"/>
<path d="M71.7097 21.3676C71.7097 22.0742 71.1392 22.6471 70.4355 22.6471C69.7318 22.6471 69.1613 22.0742 69.1613 21.3676C69.1613 20.661 69.7318 20.0882 70.4355 20.0882C71.1392 20.0882 71.7097 20.661 71.7097 21.3676Z" fill="#CED6E2"/>
<path d="M79.3548 21.3676C79.3548 22.0742 78.7844 22.6471 78.0806 22.6471C77.3769 22.6471 76.8064 22.0742 76.8064 21.3676C76.8064 20.661 77.3769 20.0882 78.0806 20.0882C78.7844 20.0882 79.3548 20.661 79.3548 21.3676Z" fill="#CED6E2"/>
<path d="M87 21.3676C87 22.0742 86.4295 22.6471 85.7258 22.6471C85.0221 22.6471 84.4516 22.0742 84.4516 21.3676C84.4516 20.661 85.0221 20.0882 85.7258 20.0882C86.4295 20.0882 87 20.661 87 21.3676Z" fill="#CED6E2"/>
<path d="M10.5484 29.0441C10.5484 29.7507 9.97791 30.3235 9.27419 30.3235C8.57048 30.3235 8 29.7507 8 29.0441C8 28.3375 8.57048 27.7647 9.27419 27.7647C9.97791 27.7647 10.5484 28.3375 10.5484 29.0441Z" fill="#CED6E2"/>
<path d="M18.1935 29.0441C18.1935 29.7507 17.6231 30.3235 16.9194 30.3235C16.2156 30.3235 15.6452 29.7507 15.6452 29.0441C15.6452 28.3375 16.2156 27.7647 16.9194 27.7647C17.6231 27.7647 18.1935 28.3375 18.1935 29.0441Z" fill="#CED6E2"/>
<path d="M25.8387 29.0441C25.8387 29.7507 25.2682 30.3235 24.5645 30.3235C23.8608 30.3235 23.2903 29.7507 23.2903 29.0441C23.2903 28.3375 23.8608 27.7647 24.5645 27.7647C25.2682 27.7647 25.8387 28.3375 25.8387 29.0441Z" fill="#CED6E2"/>
<path d="M33.4839 29.0441C33.4839 29.7507 32.9134 30.3235 32.2097 30.3235C31.506 30.3235 30.9355 29.7507 30.9355 29.0441C30.9355 28.3375 31.506 27.7647 32.2097 27.7647C32.9134 27.7647 33.4839 28.3375 33.4839 29.0441Z" fill="#CED6E2"/>
<path d="M41.129 29.0441C41.129 29.7507 40.5586 30.3235 39.8548 30.3235C39.1511 30.3235 38.5806 29.7507 38.5806 29.0441C38.5806 28.3375 39.1511 27.7647 39.8548 27.7647C40.5586 27.7647 41.129 28.3375 41.129 29.0441Z" fill="#CED6E2"/>
<path d="M48.7742 29.0441C48.7742 29.7507 48.2037 30.3235 47.5 30.3235C46.7963 30.3235 46.2258 29.7507 46.2258 29.0441C46.2258 28.3375 46.7963 27.7647 47.5 27.7647C48.2037 27.7647 48.7742 28.3375 48.7742 29.0441Z" fill="#CED6E2"/>
<path d="M56.4194 29.0441C56.4194 29.7507 55.8489 30.3235 55.1452 30.3235C54.4414 30.3235 53.871 29.7507 53.871 29.0441C53.871 28.3375 54.4414 27.7647 55.1452 27.7647C55.8489 27.7647 56.4194 28.3375 56.4194 29.0441Z" fill="#CED6E2"/>
<path d="M64.0645 29.0441C64.0645 29.7507 63.494 30.3235 62.7903 30.3235C62.0866 30.3235 61.5161 29.7507 61.5161 29.0441C61.5161 28.3375 62.0866 27.7647 62.7903 27.7647C63.494 27.7647 64.0645 28.3375 64.0645 29.0441Z" fill="#CED6E2"/>
<path d="M71.7097 29.0441C71.7097 29.7507 71.1392 30.3235 70.4355 30.3235C69.7318 30.3235 69.1613 29.7507 69.1613 29.0441C69.1613 28.3375 69.7318 27.7647 70.4355 27.7647C71.1392 27.7647 71.7097 28.3375 71.7097 29.0441Z" fill="#CED6E2"/>
<path d="M79.3548 29.0441C79.3548 29.7507 78.7844 30.3235 78.0806 30.3235C77.3769 30.3235 76.8064 29.7507 76.8064 29.0441C76.8064 28.3375 77.3769 27.7647 78.0806 27.7647C78.7844 27.7647 79.3548 28.3375 79.3548 29.0441Z" fill="#CED6E2"/>
<path d="M87 29.0441C87 29.7507 86.4295 30.3235 85.7258 30.3235C85.0221 30.3235 84.4516 29.7507 84.4516 29.0441C84.4516 28.3375 85.0221 27.7647 85.7258 27.7647C86.4295 27.7647 87 28.3375 87 29.0441Z" fill="#CED6E2"/>
<path d="M10.5484 36.7206C10.5484 37.4272 9.97791 38 9.27419 38C8.57048 38 8 37.4272 8 36.7206C8 36.014 8.57048 35.4412 9.27419 35.4412C9.97791 35.4412 10.5484 36.014 10.5484 36.7206Z" fill="#CED6E2"/>
<path d="M18.1935 36.7206C18.1935 37.4272 17.6231 38 16.9194 38C16.2156 38 15.6452 37.4272 15.6452 36.7206C15.6452 36.014 16.2156 35.4412 16.9194 35.4412C17.6231 35.4412 18.1935 36.014 18.1935 36.7206Z" fill="#CED6E2"/>
<path d="M25.8387 36.7206C25.8387 37.4272 25.2682 38 24.5645 38C23.8608 38 23.2903 37.4272 23.2903 36.7206C23.2903 36.014 23.8608 35.4412 24.5645 35.4412C25.2682 35.4412 25.8387 36.014 25.8387 36.7206Z" fill="#CED6E2"/>
<path d="M33.4839 36.7206C33.4839 37.4272 32.9134 38 32.2097 38C31.506 38 30.9355 37.4272 30.9355 36.7206C30.9355 36.014 31.506 35.4412 32.2097 35.4412C32.9134 35.4412 33.4839 36.014 33.4839 36.7206Z" fill="#CED6E2"/>
<path d="M41.129 36.7206C41.129 37.4272 40.5586 38 39.8548 38C39.1511 38 38.5806 37.4272 38.5806 36.7206C38.5806 36.014 39.1511 35.4412 39.8548 35.4412C40.5586 35.4412 41.129 36.014 41.129 36.7206Z" fill="#CED6E2"/>
<path d="M48.7742 36.7206C48.7742 37.4272 48.2037 38 47.5 38C46.7963 38 46.2258 37.4272 46.2258 36.7206C46.2258 36.014 46.7963 35.4412 47.5 35.4412C48.2037 35.4412 48.7742 36.014 48.7742 36.7206Z" fill="#CED6E2"/>
<path d="M56.4194 36.7206C56.4194 37.4272 55.8489 38 55.1452 38C54.4414 38 53.871 37.4272 53.871 36.7206C53.871 36.014 54.4414 35.4412 55.1452 35.4412C55.8489 35.4412 56.4194 36.014 56.4194 36.7206Z" fill="#CED6E2"/>
<path d="M64.0645 36.7206C64.0645 37.4272 63.494 38 62.7903 38C62.0866 38 61.5161 37.4272 61.5161 36.7206C61.5161 36.014 62.0866 35.4412 62.7903 35.4412C63.494 35.4412 64.0645 36.014 64.0645 36.7206Z" fill="#CED6E2"/>
<path d="M71.7097 36.7206C71.7097 37.4272 71.1392 38 70.4355 38C69.7318 38 69.1613 37.4272 69.1613 36.7206C69.1613 36.014 69.7318 35.4412 70.4355 35.4412C71.1392 35.4412 71.7097 36.014 71.7097 36.7206Z" fill="#CED6E2"/>
<path d="M79.3548 36.7206C79.3548 37.4272 78.7844 38 78.0806 38C77.3769 38 76.8064 37.4272 76.8064 36.7206C76.8064 36.014 77.3769 35.4412 78.0806 35.4412C78.7844 35.4412 79.3548 36.014 79.3548 36.7206Z" fill="#CED6E2"/>
<path d="M87 36.7206C87 37.4272 86.4295 38 85.7258 38C85.0221 38 84.4516 37.4272 84.4516 36.7206C84.4516 36.014 85.0221 35.4412 85.7258 35.4412C86.4295 35.4412 87 36.014 87 36.7206Z" fill="#CED6E2"/>
<path d="M2.54839 -47.7206C2.54839 -47.014 1.97791 -46.4412 1.27419 -46.4412C0.570476 -46.4412 0 -47.014 0 -47.7206C0 -48.4272 0.570476 -49 1.27419 -49C1.97791 -49 2.54839 -48.4272 2.54839 -47.7206Z" fill="#CED6E2"/>
<path d="M2.54839 -40.0441C2.54839 -39.3375 1.97791 -38.7647 1.27419 -38.7647C0.570476 -38.7647 0 -39.3375 0 -40.0441C0 -40.7507 0.570476 -41.3235 1.27419 -41.3235C1.97791 -41.3235 2.54839 -40.7507 2.54839 -40.0441Z" fill="#CED6E2"/>
<path d="M2.54839 -32.3676C2.54839 -31.661 1.97791 -31.0882 1.27419 -31.0882C0.570476 -31.0882 0 -31.661 0 -32.3676C0 -33.0742 0.570476 -33.6471 1.27419 -33.6471C1.97791 -33.6471 2.54839 -33.0742 2.54839 -32.3676Z" fill="#CED6E2"/>
<path d="M2.54839 -24.6912C2.54839 -23.9846 1.97791 -23.4118 1.27419 -23.4118C0.570476 -23.4118 0 -23.9846 0 -24.6912C0 -25.3978 0.570476 -25.9706 1.27419 -25.9706C1.97791 -25.9706 2.54839 -25.3978 2.54839 -24.6912Z" fill="#CED6E2"/>
<path d="M2.54839 -17.0147C2.54839 -16.3081 1.97791 -15.7353 1.27419 -15.7353C0.570476 -15.7353 0 -16.3081 0 -17.0147C0 -17.7213 0.570476 -18.2941 1.27419 -18.2941C1.97791 -18.2941 2.54839 -17.7213 2.54839 -17.0147Z" fill="#CED6E2"/>
<path d="M2.54839 -9.33823C2.54839 -8.63163 1.97791 -8.05882 1.27419 -8.05882C0.570476 -8.05882 0 -8.63163 0 -9.33823C0 -10.0448 0.570476 -10.6176 1.27419 -10.6176C1.97791 -10.6176 2.54839 -10.0448 2.54839 -9.33823Z" fill="#CED6E2"/>
<path d="M2.54839 -1.66177C2.54839 -0.955166 1.97791 -0.382355 1.27419 -0.382355C0.570476 -0.382355 0 -0.955166 0 -1.66177C0 -2.36837 0.570476 -2.94118 1.27419 -2.94118C1.97791 -2.94118 2.54839 -2.36837 2.54839 -1.66177Z" fill="#CED6E2"/>
<path d="M2.54839 6.01471C2.54839 6.72131 1.97791 7.29412 1.27419 7.29412C0.570476 7.29412 0 6.72131 0 6.01471C0 5.30811 0.570476 4.73529 1.27419 4.73529C1.97791 4.73529 2.54839 5.30811 2.54839 6.01471Z" fill="#CED6E2"/>
<path d="M2.54839 13.6912C2.54839 14.3978 1.97791 14.9706 1.27419 14.9706C0.570476 14.9706 0 14.3978 0 13.6912C0 12.9846 0.570476 12.4118 1.27419 12.4118C1.97791 12.4118 2.54839 12.9846 2.54839 13.6912Z" fill="#CED6E2"/>
<path d="M2.54839 21.3676C2.54839 22.0742 1.97791 22.6471 1.27419 22.6471C0.570476 22.6471 0 22.0742 0 21.3676C0 20.661 0.570476 20.0882 1.27419 20.0882C1.97791 20.0882 2.54839 20.661 2.54839 21.3676Z" fill="#CED6E2"/>
<path d="M2.54839 29.0441C2.54839 29.7507 1.97791 30.3235 1.27419 30.3235C0.570476 30.3235 0 29.7507 0 29.0441C0 28.3375 0.570476 27.7647 1.27419 27.7647C1.97791 27.7647 2.54839 28.3375 2.54839 29.0441Z" fill="#CED6E2"/>
<path d="M2.54839 36.7206C2.54839 37.4272 1.97791 38 1.27419 38C0.570476 38 0 37.4272 0 36.7206C0 36.014 0.570476 35.4412 1.27419 35.4412C1.97791 35.4412 2.54839 36.014 2.54839 36.7206Z" fill="#CED6E2"/>
</svg>
