<svg width="56" height="44" viewBox="0 0 56 44" fill="none" xmlns="http://www.w3.org/2000/svg">
<path d="M1.89668 42.8258C2.70172 37.9956 4.83953 24.1894 12.3118 23.8335C15.421 23.6854 19.773 25.2432 21.7739 27.8158C26.0707 33.3403 20.3379 42.5101 15.1028 34.8953C12.1668 30.6248 14.5482 24.5231 16.294 20.2257C18.8675 13.891 23.898 10.8746 29.8745 8.24492C32.9097 6.90945 48.2998 3.93306 47.8456 4.84129" stroke="#1E293B" stroke-width="1.91454" stroke-linecap="round"/>
<path d="M53.3603 3.00204C52.8605 3.92008 48.8072 10.8253 49.4121 10.0475C50.2039 9.02951 50.9155 7.89746 51.8287 6.98427C52.9091 5.90387 53.7005 4.56785 54.892 3.61468C55.9375 2.77828 49.0809 1.16406 47.8464 1.16406" stroke="#1E293B" stroke-width="1.91454" stroke-linecap="round"/>
</svg>
